<?xml version="1.0" encoding="UTF-8" standalone="no"?>
<!-- Created with Inkscape (http://www.inkscape.org/) -->

<svg
   xmlns:dc="http://purl.org/dc/elements/1.1/"
   xmlns:cc="http://creativecommons.org/ns#"
   xmlns:rdf="http://www.w3.org/1999/02/22-rdf-syntax-ns#"
   xmlns:svg="http://www.w3.org/2000/svg"
   xmlns="http://www.w3.org/2000/svg"
   xmlns:sodipodi="http://sodipodi.sourceforge.net/DTD/sodipodi-0.dtd"
   xmlns:inkscape="http://www.inkscape.org/namespaces/inkscape"
   width="193.675mm"
   height="36.247917mm"
   viewBox="0 0 732 137"
   version="1.1"
   id="svg1243"
   inkscape:version="0.92.5 (2060ec1f9f, 2020-04-08)"
   sodipodi:docname="Spectrum_Sportsnet_LA.svg">
  <defs
     id="defs1237" />
  <sodipodi:namedview
     id="base"
     pagecolor="#ffffff"
     bordercolor="#666666"
     borderopacity="1.0"
     inkscape:pageopacity="0.0"
     inkscape:pageshadow="2"
     inkscape:zoom="0.76897863"
     inkscape:cx="865.00621"
     inkscape:cy="136.69159"
     inkscape:document-units="px"
     inkscape:current-layer="layer1"
     showgrid="false"
     inkscape:window-width="1920"
     inkscape:window-height="1017"
     inkscape:window-x="1912"
     inkscape:window-y="70"
     inkscape:window-maximized="1"
     fit-margin-top="0"
     fit-margin-left="0"
     fit-margin-right="0"
     fit-margin-bottom="0"
     inkscape:pagecheckerboard="true" />
  <metadata
     id="metadata1240">
    <rdf:RDF>
      <cc:Work
         rdf:about="">
        <dc:format>image/svg+xml</dc:format>
        <dc:type
           rdf:resource="http://purl.org/dc/dcmitype/StillImage" />
        <dc:title></dc:title>
      </cc:Work>
    </rdf:RDF>
  </metadata>
  <g
     inkscape:label="Layer 1"
     inkscape:groupmode="layer"
     id="layer1"
     transform="translate(579.22368,-420.71368)">
    <g
       id="g10"
       transform="matrix(0.49755836,0,0,-0.49761078,-690.87926,785.77936)"
       style="fill:#000000">
      <g
         id="g12"
         transform="scale(0.1)"
         style="fill:#000000">
        <g
           id="g14"
           transform="scale(10)"
           style="fill:#000000" />
        <g
           id="g20"
           transform="scale(10)"
           style="fill:#000000" />
        <g
           id="g26"
           transform="scale(1.17791)"
           style="fill:#000000" />
        <g
           id="g30"
           transform="scale(10)"
           style="fill:#000000" />
        <g
           id="g36"
           transform="scale(1.14564)"
           style="fill:#000000" />
        <g
           id="g40"
           transform="scale(10)"
           style="fill:#000000" />
        <path
           d="m 15571.2,5711.42 c 21.7,0 198.1,0 219.3,0 -5,21.69 -96.8,422.97 -109.6,477.97 -12.4,-55 -104.4,-456.28 -109.7,-477.97"
           style="fill:#000000;fill-opacity:1;fill-rule:nonzero;stroke:none"
           id="path46"
           inkscape:connector-curvature="0" />
        <g
           id="g48"
           transform="scale(1.04024)"
           style="fill:#000000">
          <path
             d="m 14977.7,4505.37 c -675.6,0.02 -1223.2,547.36 -1223.2,1223.03 0,675.38 547.6,1222.9 1223.2,1222.9 675.4,0 1222.9,-547.52 1222.9,-1222.9 0,-675.67 -547.5,-1223.03 -1222.9,-1223.03 z m 0,2545.37 c -730.4,0 -1322.5,-592.12 -1322.5,-1322.34 0,-730.5 592.1,-1322.48 1322.5,-1322.48 730.2,0 1322.3,591.91 1322.3,1322.48 0,730.22 -592.1,1322.34 -1322.3,1322.34"
             style="fill:#000000;fill-opacity:1;fill-rule:nonzero;stroke:none"
             id="path50"
             inkscape:connector-curvature="0" />
        </g>
        <g
           id="g52"
           transform="scale(1.02686)"
           style="fill:#000000">
          <path
             d="m 15798,5392.33 c 0,0 -182.4,0 -204.4,0 5,-21.15 52,-217.25 55,-230.51 13.7,0 123.4,0 123.4,0 l 0.2,-170.29 -422,0.79 v 169.5 c 0,0 99.1,0 118.9,0 -4.6,20.85 -49.6,216.84 -52.7,230.51 -14.4,0 -276.6,0 -291.2,0 -3,-13.67 -48,-209.66 -52.4,-230.51 19.6,0 118.7,0 118.7,0 v -169.5 l -421.8,-0.79 v 170.29 c 0,0 109.9,0 123.4,0 3.2,13.26 50.1,209.36 55.1,230.51 -22.7,0 -303.7,0 -303.7,0 v 161.49 c 0,0 107.4,0 124.1,0 0,19.02 0,912.6 0,931.34 -16.5,0 -117.7,0 -117.7,0 v 159.25 l 406.1,1.13 v -160.38 c 0,0 -108.4,0 -125,0 0,-18.74 0,-904.41 0,-923.13 13.2,0 46.1,0 56.9,0 3.4,14.4 162.5,680.68 162.5,680.68 l 238.7,-0.03 c 0,0 159.6,-666.25 163,-680.65 l 74.9,0.07 v 169.03 h 170 z m -625.1,1537.92 c -622.7,0 -1127.5,-504.76 -1127.5,-1127.2 0,-622.73 504.8,-1127.35 1127.5,-1127.35 622.6,0 1127.1,504.62 1127.1,1127.35 0,622.44 -504.5,1127.2 -1127.1,1127.2"
             style="fill:#000000;fill-opacity:1;fill-rule:nonzero;stroke:none"
             id="path54"
             inkscape:connector-curvature="0" />
        </g>
        <path
           d="m 11826.8,4764.98 c -83.4,0 -156.3,32.09 -205.4,90.41 -49.2,58.73 -68.5,136.36 -53.8,218.39 l 228.7,1296.07 H 12807 l -56.9,-322.12 h -647.6 l -51.7,-291.49 h 597.1 l -56.7,-322.53 h -596.9 l -37.3,-210.48 c -8.1,-45.41 -2.7,-78.84 16.8,-102.04 19.3,-23.38 51.5,-34.62 98,-34.62 h 508.7 l -56.7,-321.59 h -697"
           style="fill:#000000;fill-opacity:1;fill-rule:nonzero;stroke:none"
           id="path56"
           inkscape:connector-curvature="0" />
        <path
           d="m 2244.07,4764.98 56.91,321.59 h 557.37 c 174.47,0 211.05,72.06 223.76,142.28 10.51,56.51 16.46,106.64 -16.28,144.83 -22.6,26.53 -75.8,48.03 -168.03,48.03 h -23.64 c -211.25,0 -347.69,40.1 -417.42,123.24 -55.43,66.43 -70.96,164.06 -47.34,299.2 l 13.24,75.14 c 55.01,311.52 246.34,450.56 620.06,450.56 h 538.7 l -57.34,-322.12 h -537.12 c -164.65,0 -205.94,-49.79 -224.44,-141.64 -10.69,-51.62 -17.41,-101.75 16.45,-142.02 28.86,-34.43 76.09,-47.86 168.26,-47.86 h 23.49 c 211.21,0 346.9,-45.2 416.81,-128.05 55.7,-66.41 71.8,-159.45 48.04,-294.8 l -13.86,-78.32 c -54.92,-311.09 -246.13,-450.06 -620.04,-450.06 h -557.58"
           style="fill:#000000;fill-opacity:1;fill-rule:nonzero;stroke:none"
           id="path58"
           inkscape:connector-curvature="0" />
        <path
           d="m 8814.65,4764.98 56.74,321.59 h 557.37 c 174.64,0 211.17,72.06 223.93,142.26 10.39,56.53 16.34,106.66 -16.33,144.85 -22.43,26.53 -76.01,47.91 -168.12,47.91 h -23.57 c -211.08,0 -347.67,40.22 -417.35,123.36 -55.58,66.43 -70.96,164.06 -47.29,299.2 l 13.1,75.14 c 55.34,311.52 246.37,450.56 620.18,450.56 h 538.59 l -57.3,-322.12 h -537.16 c -164.54,0 -205.79,-49.79 -224.45,-141.64 -10.44,-51.62 -17.34,-101.75 16.43,-142.07 28.95,-34.38 76.15,-47.81 168.16,-47.81 h 23.43 c 211.42,0 347.29,-45.2 416.97,-128.05 55.62,-66.41 71.92,-159.45 48.02,-294.8 l -13.78,-78.32 c -54.91,-311.12 -246.08,-450.06 -620.04,-450.06 h -557.53"
           style="fill:#000000;fill-opacity:1;fill-rule:nonzero;stroke:none"
           id="path60"
           inkscape:connector-curvature="0" />
        <path
           d="m 5640.05,6071.95 c -171.78,0 -270.9,-68.01 -294.56,-201.7 l -107,-606.61 c -10.36,-57.38 -1.3,-103.85 26.63,-137.14 35.6,-42.5 101.78,-64.12 196.71,-64.12 172.17,0 271.14,67.84 294.76,201.45 l 107.14,606.85 c 10.33,57.92 1.17,104.23 -26.72,137.47 -35.41,42.1 -101.83,63.8 -196.96,63.8 z M 5405.4,4740.85 c -215.15,0 -370.2,54.63 -460.8,162.67 -70.8,84.25 -97.35,201.36 -74.87,329.33 l 118.18,669.24 c 41.82,237.56 249.99,491.79 708.8,491.79 215.14,0 370.09,-54.61 460.66,-162.67 71.12,-84.66 97.7,-201.48 74.89,-329.53 l -117.81,-669.04 c -42.31,-237.68 -250.39,-491.79 -709.05,-491.79"
           style="fill:#000000;fill-opacity:1;fill-rule:nonzero;stroke:none"
           id="path62"
           inkscape:connector-curvature="0" />
        <path
           d="m 7899.71,4764.98 225.96,1282.75 h -430.7 l 56.65,322.12 h 1225.07 l -56.86,-322.12 H 8489.05 L 8262.97,4764.98 h -363.26"
           style="fill:#000000;fill-opacity:1;fill-rule:nonzero;stroke:none"
           id="path64"
           inkscape:connector-curvature="0" />
        <path
           d="m 13060.1,4764.98 226.1,1282.75 h -431.1 l 56.8,322.12 h 1225.3 l -56.9,-322.12 h -430.9 l -226.2,-1282.75 h -363.1"
           style="fill:#000000;fill-opacity:1;fill-rule:nonzero;stroke:none"
           id="path66"
           inkscape:connector-curvature="0" />
        <path
           d="m 10907.6,4764.98 -337.5,1048.67 -185,-1048.67 H 10038 l 283.2,1604.97 h 444.8 l 339.2,-1051.78 185.3,1051.78 h 347 l -283,-1604.97 h -446.9"
           style="fill:#000000;fill-opacity:1;fill-rule:nonzero;stroke:none"
           id="path68"
           inkscape:connector-curvature="0" />
        <path
           d="m 6191.42,4764.98 283.15,1604.87 h 655.76 c 200.77,0 332.6,-40.91 402.94,-125.26 61.68,-73.01 78.8,-181.24 52.44,-330.9 l -36.98,-209.49 c -34.36,-194.97 -131.59,-325.9 -294.76,-395.03 l 288.57,-544.19 h -399.32 l -260.04,485.87 h -127.33 l 34.25,196.08 c 20.62,117.44 172.31,118.81 173.76,118.81 166.47,0 208.12,61.43 228.25,175.09 l 25.53,149.28 c 10.12,57.61 5.57,88.8 -16.48,115.5 -24.32,28.72 -70.83,42.12 -146.62,42.12 H 6780.95 L 6554.52,4764.98 h -363.1"
           style="fill:#000000;fill-opacity:1;fill-rule:nonzero;stroke:none"
           id="path70"
           inkscape:connector-curvature="0" />
        <path
           d="m 3471.03,4764.98 283.35,1604.87 h 655.76 c 200.72,0 332.38,-40.91 402.96,-125.23 61.46,-73.04 78.58,-181.27 52.32,-330.93 l -36.91,-209.49 c -53.94,-305.08 -261.49,-453.35 -634.78,-453.35 h -158.31 l 34.36,196.08 c 20.62,117.44 172.38,118.81 173.76,118.81 166.48,0 208.08,61.43 228.23,175.09 l 25.71,149.28 c 10.06,57.61 5.55,88.8 -16.76,115.5 -24.03,28.72 -70.7,42.12 -146.3,42.12 H 4060.64 L 3834.17,4764.98 h -363.14"
           style="fill:#000000;fill-opacity:1;fill-rule:nonzero;stroke:none"
           id="path72"
           inkscape:connector-curvature="0" />
        <path
           d="m 2532.8,6507.16 29.73,176.95 h 284.94 c 19.81,0 36.08,1.82 48.78,5.47 12.72,3.65 22.9,8.46 30.57,14.4 7.67,5.95 13.38,13.06 17.12,21.32 3.74,8.25 6.34,17 7.84,26.22 2.26,13.05 3.45,25.16 3.65,36.3 0.19,11.13 -2.43,20.63 -7.85,28.5 -5.42,7.88 -14.4,14.02 -26.93,18.44 -12.52,4.41 -30.2,6.63 -53,6.63 h -18.51 c -47.1,0 -87.14,4.17 -120.02,12.52 -32.92,8.36 -58.91,21.78 -77.97,40.27 -19.07,18.5 -31.61,42.25 -37.58,71.3 -2.63,13.52 -3.93,28.23 -3.93,44.14 0,17.84 1.86,37.38 5.61,58.64 l 6.17,37.01 c 7.1,39.84 18.79,74.37 35.05,103.59 16.27,29.22 37.59,53.21 63.96,72.01 26.34,18.78 57.76,32.74 94.21,41.83 36.47,9.12 78.43,13.67 125.92,13.67 h 275.96 l -30.28,-176.94 h -273.72 c -21.32,0 -38.51,-1.68 -51.6,-5.04 -13.09,-3.36 -23.28,-8.29 -30.57,-14.82 -7.29,-6.52 -12.53,-14.52 -15.71,-24.02 -3.18,-9.51 -5.88,-20.41 -8.13,-32.7 -2.24,-12.3 -2.72,-23.1 -1.39,-32.42 1.29,-9.33 5.03,-17.06 11.22,-23.21 6.17,-6.14 15.32,-10.8 27.46,-13.97 12.17,-3.16 28.15,-4.75 47.98,-4.75 h 19.06 c 46.74,0 86.57,-4.18 119.47,-12.52 32.9,-8.36 58.98,-21.78 78.26,-40.27 19.25,-18.5 31.86,-42.25 37.85,-71.29 2.99,-13.52 4.49,-28.64 4.49,-45.33 0,-17.73 -1.89,-37.21 -5.61,-58.41 l -6.16,-38.74 c -7.12,-40.48 -18.89,-75.56 -35.36,-105.25 -16.46,-29.69 -37.85,-54.06 -64.22,-73.15 -26.35,-19.08 -57.86,-33.25 -94.5,-42.5 -36.65,-9.25 -78.53,-13.88 -125.64,-13.88 H 2532.8"
           style="fill:#000000;fill-opacity:1;fill-rule:nonzero;stroke:none"
           id="path74"
           inkscape:connector-curvature="0" />
        <path
           d="m 3447.57,6927.55 h 131.69 c 19.08,0 34.79,1.74 47.13,5.2 12.33,3.47 22.34,8.58 30.01,15.33 7.65,6.73 13.45,15.32 17.38,25.73 3.92,10.41 7.02,22.55 9.25,36.43 l 13.46,77.48 c 1.5,9.26 2.25,17.35 2.25,24.29 0,4.63 -0.19,8.47 -0.55,11.56 -1.51,9.26 -5.25,16.48 -11.22,21.69 -6,5.2 -14.3,8.87 -24.96,10.99 -10.66,2.11 -23.85,3.18 -39.56,3.18 h -135.17 z m -261.52,-420.39 141.92,829.21 h 328.83 c 42.25,0 79.38,-4.27 111.33,-12.81 31.98,-8.54 57.87,-22.52 77.7,-41.92 20.18,-19.41 34.02,-44.26 41.5,-74.54 3.74,-15.14 5.42,-31.83 5.05,-50.06 0,-19.04 -1.87,-39.61 -5.61,-61.72 l -18.5,-107.14 c -13.84,-81.14 -46.94,-140.92 -99.29,-179.36 -52.35,-38.43 -125.63,-57.84 -219.87,-58.21 h -131.82 l -41.65,-243.45 h -189.59"
           style="fill:#000000;fill-opacity:1;fill-rule:nonzero;stroke:none"
           id="path76"
           inkscape:connector-curvature="0" />
        <path
           d="m 3861.31,6507.16 141.4,829.21 h 531.12 l -30.28,-176.94 h -341.03 l -22.73,-134.16 h 314.67 l -30.28,-176.94 h -314.34 l -27.79,-164.22 h 341.03 l -30.3,-176.95 h -531.47"
           style="fill:#000000;fill-opacity:1;fill-rule:nonzero;stroke:none"
           id="path78"
           inkscape:connector-curvature="0" />
        <path
           d="m 4514.11,6727.48 66.77,388.58 c 4.47,26.6 13.74,52.99 27.78,79.22 14.03,26.21 33.67,49.81 58.92,70.83 25.27,21.01 56.69,37.96 94.27,50.89 37.61,12.91 82,19.37 133.25,19.37 h 237.81 l -30.28,-176.94 h -217.07 c -25.06,0 -45.26,-2.61 -60.58,-7.81 -15.34,-5.2 -27.39,-12.24 -36.18,-21.12 -8.79,-8.87 -15.05,-19.09 -18.79,-30.65 -3.74,-11.57 -6.73,-23.52 -8.97,-35.85 l -49.49,-288.06 c -2.24,-12.18 -3.36,-23.8 -3.36,-34.86 0,-11.06 2.89,-20.83 8.69,-29.31 5.79,-8.5 15.42,-15.22 28.9,-20.2 13.45,-4.98 32.71,-7.46 57.76,-7.46 h 217.08 l -30.3,-176.95 H 4752.5 c -51.17,0 -93.25,6.45 -126.25,19.38 -33,12.91 -58.46,29.97 -76.34,51.17 -17.91,20.82 -29.46,44.32 -34.68,70.54 -2.62,13.88 -4.11,27.76 -4.47,41.64 0,12.72 1.12,25.24 3.35,37.59"
           style="fill:#000000;fill-opacity:1;fill-rule:nonzero;stroke:none"
           id="path80"
           inkscape:connector-curvature="0" />
        <path
           d="m 5165.1,7159.43 30.3,176.94 h 609.13 l -30.28,-176.94 h -209.77 l -111.6,-652.27 h -189.59 l 111.6,652.27 H 5165.1"
           style="fill:#000000;fill-opacity:1;fill-rule:nonzero;stroke:none"
           id="path82"
           inkscape:connector-curvature="0" />
        <path
           d="m 5989.07,6927.55 h 130.62 c 18.68,0 34.27,1.74 46.8,5.2 12.51,3.47 22.81,8.58 30.84,15.33 8.02,6.73 14.19,15.32 18.49,25.73 4.3,10.41 7.57,22.55 9.81,36.43 l 13.45,77.48 c 1.51,8.87 2.26,16.57 2.26,23.13 0,4.63 -0.39,8.87 -1.14,12.72 -1.48,9.26 -5.32,16.48 -11.49,21.69 -6.16,5.2 -14.78,8.87 -25.81,10.99 -11.02,2.11 -24.38,3.18 -40.09,3.18 h -134.04 z m -259.29,-420.39 141.94,829.21 h 328.35 c 47.05,0 86.74,-4.91 119.06,-14.74 32.31,-9.84 57.71,-24.58 76.2,-44.24 18.5,-19.66 30.35,-44.53 35.58,-74.59 2.25,-13.11 3.37,-27.18 3.37,-42.22 0,-19.84 -1.87,-41.22 -5.59,-64.16 l -18.46,-107.35 c -16.77,-100.34 -64.33,-168.98 -142.62,-205.92 l 108.5,-275.99 h -204.34 l -92.96,243.45 h -120.02 l -41.66,-243.45 h -187.35"
           style="fill:#000000;fill-opacity:1;fill-rule:nonzero;stroke:none"
           id="path84"
           inkscape:connector-curvature="0" />
        <path
           d="m 6468.3,6745.65 100.96,590.72 h 189.59 l -99.84,-584.16 c -1.12,-6.81 -1.7,-13.05 -1.7,-18.71 0.39,-8.32 1.7,-16.07 3.93,-23.25 4.49,-11.71 11.78,-21.34 21.88,-28.9 10.1,-7.56 22.9,-13.14 38.41,-16.72 15.52,-3.59 33.2,-5.39 53.01,-5.39 20.2,0 38.99,1.94 56.38,5.82 17.39,3.88 32.61,9.88 45.72,18.03 13.07,8.15 23.82,18.32 32.25,30.55 8.4,12.21 14.11,26.65 17.09,43.32 l 99.29,579.41 h 189.59 L 7112.1,6736.75 c -5.24,-30.85 -16.54,-61.39 -33.92,-91.66 -17.39,-30.28 -41.12,-57.45 -71.22,-81.55 -30.09,-24.09 -66.81,-43.66 -110.18,-58.69 -43.37,-15.03 -93.83,-22.55 -151.4,-22.55 -48.81,0 -92,6.06 -129.61,18.16 -37.62,12.11 -68.54,29.32 -92.75,51.62 -23.82,22.3 -40.59,49.21 -50.27,80.75 -5.59,18.44 -8.38,38.44 -8.38,59.98 0,16.94 1.31,34.56 3.93,52.84"
           style="fill:#000000;fill-opacity:1;fill-rule:nonzero;stroke:none"
           id="path86"
           inkscape:connector-curvature="0" />
        <path
           d="m 7183.82,6507.16 141.73,829.21 h 222.86 l 121.16,-465.49 281.01,465.49 h 222.49 l -141.71,-829.21 h -189.59 l 88.05,515.22 -206.39,-348.1 h -175.58 l -86.37,348.1 -88.07,-515.22 h -189.59"
           style="fill:#000000;fill-opacity:1;fill-rule:nonzero;stroke:none"
           id="path88"
           inkscape:connector-curvature="0" />
        <g
           id="g90"
           transform="scale(10)"
           style="fill:#000000" />
      </g>
    </g>
  </g>
</svg>
