<?xml version="1.0" encoding="UTF-8" standalone="no"?>
<svg
   xmlns:dc="http://purl.org/dc/elements/1.1/"
   xmlns:cc="http://creativecommons.org/ns#"
   xmlns:rdf="http://www.w3.org/1999/02/22-rdf-syntax-ns#"
   xmlns:svg="http://www.w3.org/2000/svg"
   xmlns="http://www.w3.org/2000/svg"
   xmlns:sodipodi="http://sodipodi.sourceforge.net/DTD/sodipodi-0.dtd"
   xmlns:inkscape="http://www.inkscape.org/namespaces/inkscape"
   sodipodi:docname="SNY.svg"
   inkscape:version="1.0beta1 (32d4812, 2019-09-19)"
   xml:space="preserve"
   enable-background="new 0 0 1000 436.615"
   viewBox="0 0 1000 436.615"
   height="436.615px"
   width="1000px"
   y="0px"
   x="0px"
   id="Layer_1"
   version="1.1">
  <metadata
     id="metadata69">
    <rdf:RDF>
      <cc:Work
         rdf:about="">
        <dc:format>image/svg+xml</dc:format>
        <dc:type
           rdf:resource="http://purl.org/dc/dcmitype/StillImage" />
        <dc:title></dc:title>
      </cc:Work>
    </rdf:RDF>
  </metadata>
  <defs
     id="defs67" />
  <sodipodi:namedview
     inkscape:document-rotation="0"
     inkscape:current-layer="Layer_1"
     inkscape:window-maximized="0"
     inkscape:window-y="23"
     inkscape:window-x="0"
     inkscape:cy="560"
     inkscape:cx="400"
     inkscape:zoom="0.35"
     showgrid="false"
     id="namedview65"
     inkscape:window-height="907"
     inkscape:window-width="1600"
     inkscape:pageshadow="2"
     inkscape:pageopacity="0"
     guidetolerance="10"
     gridtolerance="10"
     objecttolerance="10"
     borderopacity="1"
     bordercolor="#666666"
     pagecolor="#ffffff" />
  <path
     style="fill:#004180;fill-opacity:1"
     id="path3"
     d="M916.301,13.72c-0.063-0.093-0.154-0.202-0.248-0.295v0.031C916.115,13.534,916.208,13.627,916.301,13.72"
     fill="#010101" />
  <g
     style="fill:#004180;fill-opacity:1"
     id="g5">
    <path
       style="fill:#004180;fill-opacity:1"
       id="path7"
       d="M278.618,160.432c-17.544-19.938-52.725-29.243-110.718-29.243c-109.598,0-136.407,47.896-142.652,76.411   c-3.986,18.243-1.993,33.361,5.937,44.907c9.184,13.271,26.419,21.939,51.194,25.638l75.619,11.464   c12.162,1.93,25.021,4.479,28,8.833c0.576,0.821,1.131,2.218,0.432,5.423c-3.615,16.476-24.445,19.887-41.313,19.887   c-20.604,0-33.115-2.753-38.293-8.506c-2.752-3.039-3.676-7.354-3.02-13.887l0.596-5.629H1.705l-0.637,4.355   c-3.225,21.98,0.863,39.73,12.1,52.713c18.119,20.955,54.379,30.281,117.61,30.281c92.507,0,145.415-27.527,157.33-81.802   c3.903-17.956,2.137-32.172-5.464-43.512c-9.244-13.764-26.553-22.474-54.45-27.322c-12.326-2.137-35.212-5.67-57.315-9.039   l-42.072-6.573c-6.965-1.192-9.184-3.083-9.861-4.109c-0.369-0.574-0.822-1.561-0.328-3.78   c3.307-15.119,23.912-18.323,40.613-18.323c15.859,0,25.967,2.259,30.116,6.736c2.609,2.755,3.411,6.739,2.856,14.258l-0.391,5.464   h98.639l0.574-4.478C293.738,189.399,289.67,172.964,278.618,160.432" />
    <polyline
       style="fill:#004180;fill-opacity:1"
       id="polyline9"
       points="589.848,138.215 510.181,138.215 509.318,142.241 480.886,272.188 409.438,140.885 407.998,138.215    310.871,138.215 310.008,142.241 260.17,369.89 258.814,376.094 344.767,376.094 345.671,372.069 374.473,240.55 449.168,373.465    450.646,376.094 544.118,376.094 545.021,372.069 594.819,144.418 596.176,138.215  " />
    <polyline
       style="fill:#004180;fill-opacity:1"
       id="polyline11"
       points="858.347,138.215 753.823,138.215 752.262,140.228 684.51,229.088 656.119,141.749 654.97,138.215    552.746,138.215 555.951,145.425 625.223,299.798 609.897,369.89 608.542,376.094 697.125,376.094 698.027,372.069    713.477,301.648 850.787,146.709  " />
    <path
       style="fill:#004180;fill-opacity:1"
       id="path13"
       d="M20.913,346.143c15.983,18.489,49.858,26.706,109.865,26.706c87.021,0,136.581-24.775,147.306-73.75   c3.328-15.079,2.013-26.747-3.944-35.623c-7.478-11.175-23.102-18.692-47.691-22.966c-12.224-2.096-36.074-5.753-57.131-8.998   l-42.196-6.615c-8.319-1.397-13.764-4.15-16.639-8.424c-2.24-3.287-2.836-7.23-1.85-11.75   c2.629-11.997,13.538-26.336,50.598-26.336c19.599,0,31.186,3.082,37.594,9.984c4.459,4.766,5.65,10.682,5.752,16.475h78.712   c1.274-15.94-2.095-28.308-10.354-37.675c-15.458-17.545-48.204-25.752-103.034-25.752c-102.408,0-127.08,42.844-132.668,68.358   c-3.411,15.612-1.973,27.692,4.396,36.896c7.497,10.888,22.392,18.078,44.291,21.365c0,0,75.619,11.503,75.639,11.503   c18.387,2.877,29.973,5.917,34.883,13.106c2.507,3.656,3.144,8.053,1.973,13.395c-2.795,12.736-13.949,27.98-51.297,27.98   c-24.302,0-38.477-3.698-45.914-11.915c-4.52-5.055-5.711-10.971-5.813-16.146H10.703C8.978,322.97,12.307,336.16,20.913,346.143"
       fill="#233F81" />
    <polyline
       style="fill:#004180;fill-opacity:1"
       id="polyline15"
       points="367.159,226.088 368.063,222.062 375.828,222.062 377.267,224.692 456.645,365.865 535.9,365.865    583.479,148.435 518.397,148.435 488.117,286.938 487.213,290.964 479.407,290.964 477.969,288.292 401.918,148.435    319.088,148.435 271.51,365.865 336.55,365.865  "
       fill="#233F81" />
    <polyline
       style="fill:#004180;fill-opacity:1"
       id="polyline17"
       points="635.946,298.689 635.578,300.332 621.237,365.865 688.906,365.865 703.738,298.154    704.027,296.84 704.93,295.853 835.586,148.435 758.876,148.435 686.729,243.057 680.813,250.781 677.772,241.497 647.533,148.435    568.524,148.435 635.248,297.168  "
       fill="#233F81" />
    <path
       style="fill:#004180;fill-opacity:1"
       id="path19"
       d="M997.754,247.823c22.844-117.25-131.147-212.365-343.936-212.365c-52.426,0-98.196,6.759-147.212,16.518   c24.365-3.369,50.331-5.156,78.312-5.156c196.311,0,332.019,86.116,310.981,194.349c-9.572,49.303-51.439,94.416-112.699,128.847   h120.753C954.818,335.461,988.961,293.306,997.754,247.823" />
    <path
       style="fill:#004180;fill-opacity:1"
       id="path21"
       d="M991.344,126.999C928.399,51.831,809.743,0,646.507,0C461.371,0,310.008,59.535,236.104,130.963l53.854,0.493   c86.652-73.545,225.606-117.528,388.02-117.528C826.506,13.928,927.044,63.623,991.344,126.999" />
    <path
       style="fill:#004180;fill-opacity:1"
       id="path23"
       d="M875.521,135.77c26.091,31.647,36.033,68.174,28.761,105.645c-8.217,42.153-38.867,82.789-87.308,116.686   h82.05c49.057-33.938,79.132-73.257,87.021-113.893c6.574-33.772-2.425-65.861-26.788-95.361   c-47.045-57.12-144.337-95.064-260.242-103.158C777.16,61.075,839.816,92.424,875.521,135.77"
       fill="#233F81" />
    <path
       style="fill:#004180;fill-opacity:1"
       id="path25"
       d="M857.319,132.524h2.672l-0.37-1.355C858.84,131.621,858.101,132.073,857.319,132.524"
       fill="#010101" />
    <path
       style="fill:#004180;fill-opacity:1"
       id="path27"
       d="M279.686,122.87c51.729-42.915,120.753-75.25,200.338-95.033c-89.979,18.304-169.399,51.461-223.686,94.827   "
       fill="#233F81" />
    <path
       style="fill:#004180;fill-opacity:1"
       id="path29"
       d="M40.408,410.156v-0.822c0-2.3-2.218-3.573-6.389-3.573c-3.719,0-5.813,1.109-5.813,2.999c0,1.726,0.884,2.259,5.978,3.697   l7.561,2.138c3.76,1.067,6.081,2.136,7.621,3.449c1.993,1.809,3.226,4.521,3.226,7.314c0,3.533-1.849,6.779-5.032,8.547   c-3.287,1.849-7.293,2.71-13.334,2.71c-9.264,0-15.078-2.012-17.357-6.08c-1.109-1.974-1.357-2.958-1.542-6.368h11.546   c-0.041,0.534-0.041,0.904-0.041,1.109c0,3.04,2.26,4.52,6.861,4.52c4.293,0,6.717-1.315,6.717-3.657   c0-1.808-0.842-2.506-4.785-3.532l-7.375-1.974c-4.869-1.272-5.979-1.725-7.89-2.958c-2.69-1.808-3.944-4.189-3.944-7.477   c0-3.411,1.459-6.287,4.109-7.971c3.389-2.179,7.128-2.959,13.559-2.959c12.264,0,17.234,3.08,17.461,10.888" />
    <path
       style="fill:#004180;fill-opacity:1"
       id="path31"
       d="M81.988,435.546H70.896v-35.251h18.571c6.244,0,9.326,0.615,12.018,2.342c2.814,1.808,4.437,5.055,4.437,8.751   c0,4.603-2.219,8.218-5.875,9.779c-2.855,1.149-5.69,1.602-11.73,1.602h-6.327 M85.131,416.195c6.389,0,8.629-1.191,8.629-4.601   c0-3.123-2.137-4.396-7.478-4.396h-4.294v8.997H85.131z" />
    <path
       style="fill:#004180;fill-opacity:1"
       id="path33"
       d="M160.319,431.439c-4.129,3.656-9.101,5.176-16.763,5.176c-7.684,0-12.86-1.601-16.764-5.176   c-3.636-3.287-5.383-7.724-5.383-13.477c0-11.874,7.889-18.694,21.551-18.694c8.258,0,13.332,1.479,17.358,5.177   c3.554,3.287,5.362,7.765,5.362,13.518S163.832,428.316,160.319,431.439 M143.557,406.129c-6.41,0-10.271,4.438-10.271,11.833   c0,7.313,3.861,11.833,10.271,11.833c6.409,0,10.313-4.52,10.313-11.833C153.869,410.567,149.966,406.129,143.557,406.129" />
    <path
       style="fill:#004180;fill-opacity:1"
       id="path35"
       d="M195.366,435.546h-11.442v-35.251h21.118c5.608,0,8.095,0.369,10.683,1.602c2.855,1.398,4.767,4.355,4.767,7.561   c0,3.287-1.747,5.998-4.828,7.396c-1.191,0.616-1.89,0.821-3.801,1.19c3.369,0.247,5.239,1.028,6.45,2.589   c1.007,1.356,1.397,2.795,1.706,6.37c0.473,5.464,0.842,6.983,2.054,8.544h-12.388c-0.944-1.972-1.047-2.589-1.253-6.204   c-0.432-6.736-1.171-7.601-6.471-7.601h-6.595 M201.18,415.209c5.115,0,7.149-1.192,7.149-4.191c0-3.039-2.034-4.19-7.149-4.19   h-5.813v8.382H201.18z" />
    <polyline
       style="fill:#004180;fill-opacity:1"
       id="polyline37"
       points="260.252,435.546 248.799,435.546 248.799,407.526 235.405,407.526 235.405,400.295 273.605,400.295    273.605,407.526 260.252,407.526  " />
    <path
       style="fill:#004180;fill-opacity:1"
       id="path39"
       d="M312.391,410.156v-0.822c0-2.3-2.219-3.573-6.41-3.573c-3.697,0-5.793,1.109-5.793,2.999c0,1.726,0.904,2.259,5.958,3.697   l7.601,2.138c3.739,1.067,6.081,2.136,7.602,3.449c2.013,1.809,3.205,4.521,3.205,7.314c0,3.533-1.85,6.779-5.014,8.547   c-3.287,1.849-7.313,2.71-13.353,2.71c-9.245,0-15.038-2.012-17.339-6.08c-1.109-1.974-1.355-2.958-1.52-6.368h11.545   c-0.082,0.534-0.082,0.904-0.082,1.109c0,3.04,2.301,4.52,6.902,4.52c4.273,0,6.697-1.315,6.697-3.657   c0-1.808-0.821-2.506-4.807-3.532l-7.355-1.974c-4.848-1.272-5.957-1.725-7.888-2.958c-2.712-1.808-3.944-4.189-3.944-7.477   c0-3.411,1.479-6.287,4.108-7.971c3.369-2.179,7.149-2.959,13.559-2.959c12.243,0,17.257,3.08,17.462,10.888" />
    <path
       style="fill:#004180;fill-opacity:1"
       id="path41"
       d="M384.539,400.295v35.251h-15.12l-12.819-18.94c-0.287-0.37-0.739-1.15-1.438-2.342c-0.699-1.149-0.986-1.685-1.85-3.04   c0.082,2.793,0.164,4.438,0.164,7.848v16.475h-10.6v-35.251h15.531l10.969,16.928l2.096,3.081c1.315,2.095,2.014,3.123,2.055,3.204   c0.164,0.247,0.41,0.617,0.74,1.15l-0.124-1.354c-0.082-2.137-0.124-3.411-0.124-3.904c-0.082-1.19-0.082-2.753-0.082-4.478   v-14.627" />
    <polyline
       style="fill:#004180;fill-opacity:1"
       id="polyline43"
       points="434.91,407.526 415.313,407.526 415.313,414.017 433.637,414.017 433.637,421.126 415.395,421.126    415.395,428.316 435.116,428.316 435.116,435.546 404.26,435.546 404.26,400.295 434.91,400.295  " />
    <polyline
       style="fill:#004180;fill-opacity:1"
       id="polyline45"
       points="474.847,435.546 463.424,435.546 463.424,407.526 450.03,407.526 450.03,400.295 488.24,400.295 488.24,407.526    474.847,407.526  " />
    <path
       style="fill:#004180;fill-opacity:1"
       id="path47"
       d="M573.495,400.295v35.251h-15.08l-12.858-18.94c-0.288-0.37-0.739-1.15-1.438-2.342c-0.698-1.149-0.987-1.685-1.848-3.04   c0.121,2.793,0.163,4.438,0.163,7.848v16.475h-10.601v-35.251h15.532l11.01,16.928l2.055,3.081   c1.314,2.095,2.013,3.123,2.054,3.204c0.165,0.247,0.411,0.617,0.739,1.15l-0.123-1.354c-0.081-2.137-0.122-3.411-0.122-3.904   c-0.083-1.19-0.083-2.753-0.083-4.478v-14.627" />
    <polyline
       style="fill:#004180;fill-opacity:1"
       id="polyline49"
       points="623.867,407.526 604.269,407.526 604.269,414.017 622.593,414.017 622.593,421.126 604.35,421.126    604.35,428.316 624.072,428.316 624.072,435.546 593.217,435.546 593.217,400.295 623.867,400.295  " />
    <path
       style="fill:#004180;fill-opacity:1"
       id="path51"
       d="M694.33,400.295l-8.341,35.251H672.76l-3.123-10.722c-0.574-2.056-1.109-4.479-1.931-8.465   c-0.492-2.506-0.616-3.204-0.986-5.383c-0.328,2.383-0.451,3.287-0.821,5.137c-0.575,3.081-1.439,6.655-2.055,8.751l-3.04,10.682   h-13.229l-8.423-35.251h11.462l2.302,10.971l1.026,5.545l0.822,4.848c0.329,1.933,0.412,3,0.657,5.713   c0.247-2.795,0.411-3.863,0.698-5.999c0.535-3.082,0.863-4.438,2.26-9.737l3-11.34h11.669l2.793,10.682l1.192,4.685   c1.602,6.08,1.931,7.724,2.506,11.71c0.124-3.041,0.246-4.191,0.534-6.615c0.411-3.493,0.903-6.204,1.808-10.478l2.138-9.983" />
    <polyline
       style="fill:#004180;fill-opacity:1"
       id="polyline53"
       points="779.832,400.295 762.698,423.221 762.698,435.546 751.275,435.546 751.275,423.221 734.143,400.295    748.524,400.295 757.891,413.854 767.258,400.295  " />
    <path
       style="fill:#004180;fill-opacity:1"
       id="path55"
       d="M831.148,431.439c-4.151,3.656-9.121,5.176-16.805,5.176c-7.643,0-12.859-1.601-16.764-5.176   c-3.574-3.287-5.34-7.724-5.34-13.477c0-11.874,7.888-18.694,21.529-18.694c8.258,0,13.352,1.479,17.379,5.177   c3.532,3.287,5.34,7.765,5.34,13.518S834.641,428.316,831.148,431.439 M814.344,406.129c-6.369,0-10.272,4.438-10.272,11.833   c0,7.313,3.903,11.833,10.272,11.833c6.409,0,10.354-4.52,10.354-11.833C824.698,410.567,820.753,406.129,814.344,406.129" />
    <path
       style="fill:#004180;fill-opacity:1"
       id="path57"
       d="M866.154,435.546H854.73v-35.251h21.119c5.63,0,8.094,0.369,10.683,1.602c2.876,1.398,4.767,4.355,4.767,7.561   c0,3.287-1.725,5.998-4.808,7.396c-1.232,0.616-1.931,0.821-3.821,1.19c3.41,0.247,5.259,1.028,6.451,2.589   c1.027,1.356,1.396,2.795,1.684,6.37c0.494,5.464,0.864,6.983,2.096,8.544h-12.408c-0.945-1.972-1.026-2.589-1.273-6.204   c-0.411-6.736-1.15-7.601-6.449-7.601h-6.615 M871.988,415.209c5.136,0,7.148-1.192,7.148-4.191c0-3.039-2.013-4.19-7.148-4.19   h-5.834v8.382H871.988z" />
    <path
       style="fill:#004180;fill-opacity:1"
       id="path59"
       d="M922.4,435.546h-11.463v-35.251H922.4V435.546z M953.422,435.546h-14.75l-15.941-19.228l14.626-16.023h14.546   l-15.695,15.284L953.422,435.546z" />
    <path
       style="fill:#004180;fill-opacity:1"
       id="path61"
       d="M140.578,372.807c0,0,114.732-1.026,150.776-69.763c21.036-40.143-76.698-1.479-76.698-1.479l-6.84,4.272   l39.052-19.105l-21.776,38.046l-84.514,32.664"
       fill="#233F81" />
    <path
       style="fill:#004180;fill-opacity:1"
       id="path63"
       d="M264.648,253.536c0,0,17.625,10.229,23.871,32.128c6.245,21.858-10.23-0.328-10.23-0.328"
       fill="#233F81" />
  </g>
</svg>
